<svg id="Ebene_1" data-name="Ebene 1" xmlns="http://www.w3.org/2000/svg" viewBox="0 0 70.87 70.87"><defs><style>.cls-1,.cls-5{fill:none;}.cls-2{fill:#916280;}.cls-3{fill:#27b6bd;}.cls-4{fill:#f9b155;}.cls-5{stroke:#010101;stroke-miterlimit:10;}</style></defs><rect class="cls-1" width="70.87" height="70.87"/><polygon class="cls-2" points="35.43 42.71 28.16 35.43 20.89 42.7 6.34 42.7 20.89 57.25 35.43 42.71"/><polygon class="cls-3" points="35.43 42.71 35.43 57.24 42.7 49.98 35.43 42.71"/><rect class="cls-3" x="35.51" y="19.61" width="21.21" height="10.28" transform="translate(-4 39.86) rotate(-45)"/><rect class="cls-3" x="42.78" y="26.88" width="21.21" height="10.28" transform="translate(-7.01 47.13) rotate(-45)"/><ellipse class="cls-4" cx="13.61" cy="35.43" rx="10.28" ry="10.28" transform="translate(-21.06 20) rotate(-45)"/><path class="cls-5" d="M28.16,20.89"/><circle class="cls-3" cx="57.25" cy="20.89" r="10.28" transform="translate(1.99 46.6) rotate(-45)"/><circle class="cls-3" cx="42.71" cy="35.43" r="10.28"/><circle class="cls-2" cx="28.16" cy="49.98" r="10.28"/><path class="cls-5" d="M28.16,20.89"/><polygon class="cls-4" points="20.88 28.16 28.16 35.43 20.89 42.7 20.88 28.16"/><rect class="cls-3" x="30.29" y="30.29" width="10.29" height="10.29" transform="translate(-14.68 35.43) rotate(-45)"/><polygon class="cls-3" points="35.43 42.71 42.7 49.98 50.69 41.98 35.43 42.71"/><circle class="cls-2" cx="35.42" cy="42.71" r="10.28"/><polygon class="cls-2" points="35.43 57.24 42.69 49.98 37.82 43.97 35.43 57.24"/></svg>