<?xml version="1.0" encoding="UTF-8"?>
<svg id="Ebene_1" xmlns="http://www.w3.org/2000/svg" version="1.1" viewBox="0 0 65.72 13.39">
  <!-- Generator: Adobe Illustrator 29.8.3, SVG Export Plug-In . SVG Version: 2.1.1 Build 3)  -->
  <defs>
    <style>
      .st0 {
        fill: #f9b155;
      }

      .st1 {
        fill: #916280;
      }

      .st2 {
        fill: #27b6bd;
      }
    </style>
  </defs>
  <g id="Ebene_2">
    <g>
      <polygon class="st1" points="8.05 8.16 6.23 6.34 4.41 8.16 .77 8.16 4.41 11.8 8.05 8.16"/>
      <polygon class="st2" points="8.05 8.16 8.05 11.79 9.87 9.98 8.05 8.16"/>
      <rect class="st2" x="8.07" y="2.37" width="5.31" height="2.57" transform="translate(.56 8.66) rotate(-45)"/>
      <rect class="st2" x="9.89" y="4.19" width="5.31" height="2.57" transform="translate(-.2 10.47) rotate(-45)"/>
      <circle class="st0" cx="2.59" cy="6.34" r="2.57"/>
      <circle class="st2" cx="13.5" cy="2.7" r="2.57"/>
      <circle class="st2" cx="9.87" cy="6.34" r="2.57"/>
      <circle class="st1" cx="6.23" cy="9.98" r="2.57"/>
      <polygon class="st0" points="4.41 4.52 6.23 6.34 4.41 8.16 4.41 4.52"/>
      <rect class="st2" x="6.76" y="5.05" width="2.57" height="2.57" transform="translate(-2.13 7.54) rotate(-45)"/>
      <polygon class="st2" points="8.05 8.16 9.87 9.98 11.87 7.98 8.05 8.16"/>
      <circle class="st1" cx="8.05" cy="8.16" r="2.57"/>
      <polygon class="st1" points="8.05 11.79 9.86 9.98 8.65 8.47 8.05 11.79"/>
    </g>
  </g>
  <g id="Ebene_3">
    <g>
      <path d="M21.86,10.89c-.08-.15-.13-.34-.17-.57-.41.46-.94.69-1.6.69-.62,0-1.14-.18-1.54-.54s-.61-.81-.61-1.36c0-.67.25-1.19.75-1.55s1.22-.54,2.16-.54h.78v-.36c0-.29-.08-.53-.23-.7s-.39-.26-.71-.26c-.29,0-.51.07-.67.21s-.24.32-.24.56h-1.69c0-.37.11-.71.34-1.02s.55-.56.96-.74.88-.27,1.39-.27c.78,0,1.4.2,1.86.59s.69.94.69,1.66v2.75c0,.6.09,1.06.25,1.37v.1h-1.71v-.02ZM20.46,9.71c.25,0,.48-.06.69-.17s.37-.26.47-.45v-1.09h-.63c-.85,0-1.3.29-1.35.88v.1c0,.21.07.38.22.52s.35.21.61.21h-.01Z"/>
      <path d="M26.92,8.35l-.61.61v1.93h-1.69V1.89h1.69v4.99l.33-.42,1.62-1.9h2.03l-2.29,2.64,2.49,3.7h-1.95l-1.63-2.54h.01Z"/>
      <path d="M33.06,2.99v1.56h1.08v1.24h-1.08v3.16c0,.23.04.4.13.5s.26.15.52.15c.19,0,.35-.01.5-.04v1.28c-.33.1-.67.15-1.03.15-1.19,0-1.79-.6-1.82-1.8v-3.42h-.93v-1.24h.93v-1.56h1.69v.02Z"/>
      <path d="M35.07,2.91c0-.25.08-.46.25-.63s.4-.25.69-.25.52.08.69.25.26.37.26.63-.09.47-.26.63-.4.25-.69.25-.51-.08-.69-.25-.26-.38-.26-.63h0ZM36.87,10.89h-1.7v-6.34h1.7v6.34Z"/>
      <path d="M40.64,8.82l1.18-4.27h1.77l-2.14,6.34h-1.62l-2.14-6.34h1.77s1.18,4.27,1.18,4.27Z"/>
      <path d="M49.86,7.79c0,.96-.22,1.74-.66,2.33s-1.04.88-1.79.88-1.38-.24-1.82-.73v3.05h-1.08V4.55h.99l.05.7c.44-.55,1.05-.82,1.84-.82s1.36.29,1.81.86.67,1.37.67,2.4v.1h0ZM48.77,7.67c0-.71-.15-1.28-.46-1.69s-.72-.62-1.25-.62c-.66,0-1.15.29-1.48.87v3.03c.32.58.82.87,1.49.87.52,0,.93-.21,1.24-.62s.46-1.02.46-1.84Z"/>
      <path d="M52.41,10.89h-1.08V1.89h1.08v9Z"/>
      <path d="M58.06,10.89c-.06-.12-.11-.35-.15-.67-.5.52-1.11.79-1.8.79-.62,0-1.14-.18-1.54-.53s-.6-.8-.6-1.34c0-.66.25-1.17.75-1.54s1.21-.55,2.12-.55h1.05v-.5c0-.38-.11-.68-.34-.91s-.56-.34-1-.34c-.39,0-.71.1-.97.29s-.39.43-.39.71h-1.09c0-.32.11-.62.34-.92s.53-.53.91-.7.81-.26,1.27-.26c.73,0,1.3.18,1.72.55s.63.87.64,1.51v2.92c0,.58.07,1.04.22,1.39v.09h-1.14ZM56.26,10.06c.34,0,.66-.09.97-.26s.53-.4.66-.69v-1.3h-.85c-1.33,0-1.99.39-1.99,1.17,0,.34.11.61.34.8s.52.29.87.29h0Z"/>
      <path d="M61.7,4.55l.04.8c.48-.61,1.12-.91,1.9-.91,1.34,0,2.02.76,2.03,2.27v4.19h-1.08v-4.2c0-.46-.11-.79-.31-1.01s-.52-.33-.96-.33c-.35,0-.66.09-.93.28s-.47.43-.62.74v4.52h-1.08v-6.34h1.03-.02Z"/>
    </g>
  </g>
</svg>