<svg width="484" height="197" viewBox="0 0 484 197" fill="none" xmlns="http://www.w3.org/2000/svg">
<path fill-rule="evenodd" clip-rule="evenodd" d="M92.5754 0.614433C91.5847 0.940719 89.611 1.57199 88.1895 2.01701C86.7679 2.46203 85.3229 2.92224 84.9783 3.03972C84.6337 3.1572 82.9772 3.68525 81.2972 4.21313C79.6172 4.74101 77.2911 5.47645 76.128 5.84738C74.9649 6.2183 73.2732 6.74509 72.3686 7.01812C71.464 7.29114 70.4419 7.61085 70.0973 7.72849C69.2029 8.03394 65.8769 9.09284 63.675 9.77314C62.6411 10.0927 60.6322 10.7272 59.2107 11.1835C57.7892 11.6397 55.5688 12.3427 54.2765 12.7456C52.9842 13.1485 50.9752 13.7836 49.8122 14.1571C48.6491 14.5305 46.8869 15.091 45.8961 15.4027C44.9053 15.7144 43.5661 16.1367 42.9199 16.3411C41.1458 16.9027 35.97 18.5369 32.9731 19.4818C30.621 20.2235 29.0359 20.7243 22.0865 22.9214C21.1819 23.2074 19.2787 23.8048 17.8572 24.2489C16.4357 24.693 14.9906 25.1529 14.646 25.271C14.3014 25.3889 12.9621 25.8148 11.6698 26.2173C10.3775 26.6197 7.80469 27.4315 5.9524 28.0215C4.1001 28.6114 2.28306 29.1809 1.91448 29.2871C1.14286 29.5094 1.13769 29.6831 1.8902 30.1079C2.18594 30.2749 2.74515 30.5887 3.13284 30.8053C3.52053 31.0219 4.71884 31.7054 5.79575 32.3239C6.87267 32.9425 8.63489 33.9452 9.71181 34.552C10.7887 35.159 13.5025 36.6982 15.7425 37.9728C17.9825 39.2472 19.9209 40.2831 20.0502 40.2746C20.1794 40.2662 21.7654 39.7593 23.5746 39.1481C25.3838 38.537 28.7321 37.4079 31.0151 36.6391C33.2982 35.8702 39.2545 33.8595 44.2514 32.1709C49.2482 30.4823 55.5218 28.3664 58.1925 27.4688C60.8633 26.5713 66.7138 24.5974 71.1938 23.0827C75.6738 21.5678 81.1014 19.736 83.2552 19.0119C85.4091 18.2879 88.8395 17.1297 90.8784 16.4381C94.5393 15.1962 94.5939 15.1832 95.2644 15.3928C95.6378 15.5095 97.635 16.2175 99.7026 16.9661C101.77 17.7149 103.885 18.4666 104.402 18.6369C104.919 18.807 105.447 18.9878 105.577 19.0384C105.872 19.1543 107.847 19.8626 111.372 21.1172C112.88 21.6538 116.554 22.9677 119.537 24.0373C122.52 25.1068 125.01 25.9818 125.071 25.9818C125.132 25.9818 125.617 26.1501 126.148 26.3556C127.058 26.7072 133.488 29.0096 135.025 29.534C135.413 29.6662 135.871 29.8304 136.044 29.8987C136.216 29.967 136.568 30.0968 136.827 30.187C137.271 30.3423 139.293 31.0592 151.003 35.2157C153.717 36.1789 156.29 37.0968 156.72 37.2554C157.706 37.6184 165.154 40.2688 167.126 40.9585L168.604 41.4753L171.042 40.0168C172.384 39.2146 175.138 37.553 177.162 36.3243C179.187 35.0956 182.429 33.1377 184.368 31.9735C186.306 30.8092 187.956 29.7989 188.033 29.7281C188.222 29.5567 187.911 29.4369 184.603 28.4063C183.052 27.9232 181.501 27.4333 181.156 27.3175C180.812 27.2018 180.072 26.9665 179.512 26.7948C177.562 26.1967 173.32 24.8647 172.698 24.6549C172.353 24.5388 170.943 24.0896 169.565 23.6566C164.629 22.1065 160.469 20.7874 159.853 20.5772C159.509 20.4594 158.768 20.2246 158.208 20.0553C157.122 19.7266 152.767 18.3513 149.671 17.3595C148.638 17.0282 147.334 16.6168 146.774 16.4453C144.785 15.8366 139.167 14.0603 138.55 13.8454C138.205 13.7254 137.571 13.5233 137.14 13.3963C136.138 13.1007 123.2 9.01452 119.205 7.73162C117.955 7.33062 116.51 6.87432 115.993 6.71783C114.979 6.41082 106.429 3.70467 105.655 3.44574C105.397 3.35927 104.128 2.96031 102.835 2.55915C101.543 2.15799 99.1926 1.41347 97.6118 0.904535C96.0311 0.395605 94.6566 -0.0113499 94.5573 0.000241614C94.4581 0.0116765 93.5662 0.288148 92.5754 0.614433ZM0 34.1314C0 34.4233 0.720085 38.2687 1.08459 39.923C1.16996 40.3107 1.49405 41.9671 1.80483 43.6041C2.11545 45.241 2.57159 47.6023 2.81846 48.8516C3.06533 50.1008 3.48795 52.2859 3.75737 53.7075C4.46915 57.462 4.98404 60.1082 5.15916 60.913C5.24359 61.3007 5.56674 62.9572 5.87752 64.5941C6.18814 66.231 6.64381 68.5924 6.8899 69.8416C7.44911 72.6792 7.98107 75.4404 8.60999 78.7702C8.87863 80.1917 9.16419 81.6367 9.24486 81.9814C9.32537 82.326 9.74877 84.4759 10.1855 86.7589C11.1719 91.914 11.7021 94.6606 11.9847 96.0791C12.1048 96.6822 12.4209 98.3387 12.6871 99.7602C12.9532 101.182 13.2366 102.627 13.3169 102.971C13.3971 103.316 13.6816 104.761 13.9491 106.183C14.2168 107.604 14.6783 110.001 14.9748 111.508C15.7289 115.342 16.1941 117.753 16.7577 120.75C17.0251 122.172 17.3138 123.652 17.3992 124.04C17.7544 125.652 18.4838 129.536 18.4838 129.815C18.4838 129.981 18.7482 130.346 19.0712 130.628C19.3943 130.909 20.3563 131.78 21.2089 132.563C22.0615 133.346 22.8368 134.058 22.9319 134.145C23.027 134.232 23.8448 134.968 24.7494 135.781C25.654 136.594 26.7114 137.552 27.0991 137.91C27.821 138.577 30.5913 141.092 33.2169 143.463C34.0278 144.196 35.1868 145.253 35.7927 145.813C36.3986 146.373 37.5203 147.395 38.2857 148.084C39.051 148.774 39.7546 149.409 39.8496 149.496C39.9445 149.583 41.1851 150.71 42.6066 152C44.9913 154.165 46.3024 155.359 46.7399 155.765C46.8358 155.854 48.0421 156.943 49.4206 158.185C50.799 159.427 51.9621 160.483 52.0051 160.531C52.0482 160.58 52.8588 161.321 53.8065 162.178C54.7542 163.035 55.6062 163.81 55.6999 163.899C55.7934 163.988 56.4569 164.59 57.1743 165.237C57.8918 165.883 58.5553 166.482 58.6488 166.568C59.0611 166.949 62.3261 169.917 62.9568 170.484C64.8976 172.231 69.5608 176.464 72.4469 179.099C74.755 181.207 76.641 182.919 79.1825 185.214C80.1302 186.07 81.2148 187.053 81.5928 187.399C81.9708 187.745 82.3585 188.099 82.4543 188.185C84.2573 189.809 86.0922 191.475 86.1531 191.543C86.1962 191.591 86.6204 191.983 87.0956 192.414C87.571 192.845 88.6284 193.805 89.4453 194.547C90.2623 195.29 91.2112 196.151 91.5543 196.461C91.8973 196.771 92.2349 196.968 92.3044 196.899C92.3742 196.829 92.3818 192.356 92.3215 186.959L92.2117 177.147L90.3976 175.46C88.8422 174.014 86.6844 171.994 85.8346 171.189C85.6982 171.06 84.7121 170.143 83.6432 169.153C81.6103 167.268 80.207 165.958 78.0945 163.972C77.4006 163.32 76.3042 162.3 75.6581 161.705C75.0119 161.11 74.4059 160.551 74.3113 160.463C74.2167 160.374 73.3009 159.527 72.2762 158.579C69.6565 156.156 66.0271 152.766 63.9041 150.758C63.1686 150.063 61.7268 148.719 60.7002 147.771C59.6736 146.823 58.3252 145.568 57.7039 144.981C57.0827 144.395 56.4193 143.78 56.2298 143.616C55.7091 143.164 52.7487 140.408 48.4867 136.407C46.0642 134.133 44.9006 133.045 44.6431 132.812C43.7283 131.984 40.4457 128.943 39.403 127.958C38.718 127.311 38.0744 126.71 37.9728 126.624C37.8712 126.538 37.3392 126.04 36.7904 125.518C35.9146 124.684 33.0012 121.968 30.1652 119.34C28.7009 117.984 28.6777 117.958 28.5948 117.582C28.5515 117.386 28.4111 116.309 28.2827 115.189C28.0179 112.88 27.4208 107.957 26.9482 104.185C26.7726 102.785 26.4857 100.495 26.3101 99.0945C26.1346 97.6946 25.8572 95.4212 25.6937 94.0428C25.3625 91.2541 25.0245 88.5284 24.6733 85.8191C24.545 84.8283 24.2295 82.2907 23.9725 80.18C22.6561 69.3726 22.0732 64.6397 21.9278 63.5759C21.7707 62.4277 21.6915 61.7857 20.9112 55.3522C20.4772 51.7714 19.972 47.7222 19.693 45.5868L19.5019 44.1233L18.4054 43.5398C12.2972 40.2889 6.95491 37.4425 6.18736 37.0301C5.67044 36.7524 4.26066 36.0096 3.05452 35.3794C1.84838 34.7492 0.722434 34.1391 0.552478 34.0238C0.127665 33.7353 0 33.76 0 34.1314ZM187.892 34.9447C186.858 35.5569 184.18 37.128 181.94 38.436C179.7 39.7441 176.211 41.7859 174.187 42.9737C172.164 44.1614 170.358 45.2015 170.175 45.285C169.913 45.4043 169.82 45.6263 169.743 46.3218C169.69 46.8086 169.504 48.4051 169.331 49.8697C169.158 51.3343 168.877 53.7405 168.705 55.2169C168.534 56.6931 168.359 58.1381 168.317 58.428C168.274 58.7178 168.097 60.2238 167.923 61.7745C167.601 64.6453 167.232 67.8107 166.663 72.5828C166.488 74.0474 166.174 76.726 165.966 78.5352C165.609 81.6209 165.424 83.2003 164.629 89.9312C164.454 91.4172 164.136 94.1485 163.924 96.0008C163.523 99.4916 163.136 102.788 162.589 107.357C162.414 108.822 162.134 111.254 161.967 112.762C161.395 117.921 161.375 118.023 160.817 118.462C160.545 118.676 160.002 119.155 159.61 119.527C159.218 119.898 156.363 122.559 153.266 125.441C150.169 128.322 147.599 130.719 147.556 130.767C147.512 130.814 146.948 131.344 146.303 131.943C145.657 132.542 144.561 133.564 143.867 134.214C142.317 135.667 141.382 136.537 138.472 139.236C137.222 140.394 135.071 142.401 133.691 143.695C131.519 145.731 128.513 148.524 127.176 149.746C126.623 150.252 123.123 153.507 122.815 153.802C122.68 153.931 121.548 154.985 120.3 156.144C119.051 157.303 117.431 158.819 116.698 159.512C115.089 161.037 111.549 164.332 110.041 165.708C109.438 166.259 108.909 166.748 108.865 166.795C108.821 166.843 108.293 167.34 107.69 167.9C107.088 168.46 105.608 169.842 104.402 170.972C103.196 172.101 102.025 173.194 101.799 173.4C101.574 173.605 100.581 174.53 99.5924 175.455L97.7949 177.137L97.6846 187.027C97.624 192.466 97.6101 196.953 97.6536 196.996C97.7177 197.06 98.9461 196.011 100.725 194.372C101.518 193.641 102.625 192.637 104.793 190.685C106.128 189.482 107.327 188.386 107.456 188.25C107.586 188.114 108.396 187.376 109.258 186.61C110.119 185.845 111.284 184.793 111.846 184.274C112.899 183.3 113.129 183.091 115.915 180.583C116.82 179.769 117.63 179.024 117.716 178.927C117.803 178.83 118.543 178.161 119.361 177.441C120.18 176.721 120.885 176.09 120.928 176.04C120.971 175.989 121.464 175.534 122.024 175.028C122.584 174.523 123.712 173.498 124.53 172.752C128.201 169.404 130.214 167.574 131.511 166.411C132.279 165.722 133.369 164.735 133.934 164.218C136.163 162.178 136.901 161.507 138.244 160.302C139.013 159.613 140.14 158.591 140.749 158.031C142.493 156.429 144.899 154.242 145.755 153.48C146.186 153.097 146.644 152.677 146.774 152.546C146.903 152.416 147.678 151.711 148.497 150.98C149.315 150.249 150.02 149.615 150.063 149.572C150.106 149.529 150.916 148.789 151.864 147.928C152.811 147.066 153.868 146.102 154.213 145.786C154.558 145.47 154.988 145.082 155.167 144.925C155.602 144.543 161.372 139.304 163.849 137.041C164.934 136.05 166.453 134.676 167.224 133.987C167.994 133.297 169.048 132.339 169.565 131.856C170.082 131.374 170.694 130.819 170.924 130.624C171.408 130.214 171.378 130.329 172.467 124.666C173.495 119.319 173.901 117.222 174.56 113.858C174.856 112.35 175.319 109.954 175.589 108.532C175.859 107.111 176.181 105.454 176.305 104.851C176.428 104.248 176.885 101.887 177.319 99.6036C177.754 97.3205 178.175 95.1706 178.255 94.826C178.335 94.4814 178.619 93.0364 178.886 91.6148C179.153 90.1933 179.471 88.5368 179.594 87.9337C179.788 86.9724 180.287 84.3817 181.796 76.4989C182.01 75.3789 182.25 74.1806 182.33 73.836C182.409 73.4914 182.691 72.0463 182.956 70.6248C183.222 69.2033 183.539 67.5468 183.661 66.9437C183.86 65.9617 184.787 61.1632 185.869 55.5088C186.083 54.3889 186.324 53.1905 186.404 52.8459C186.483 52.5013 186.584 52.0079 186.627 51.7494C186.67 51.491 186.985 49.8345 187.328 48.0684C187.671 46.3022 188.31 42.9892 188.749 40.7062C189.188 38.4231 189.65 36.083 189.777 35.5061C190.031 34.3449 190.067 33.8094 189.889 33.8227C189.825 33.8276 188.926 34.3324 187.892 34.9447Z" fill="#252E53"/>
<path fill-rule="evenodd" clip-rule="evenodd" d="M140.978 56.1437C139.729 56.3421 137.755 56.6547 136.592 56.8384C135.429 57.0223 133.597 57.3139 132.52 57.4863C130.722 57.7742 129.612 57.9487 123.669 58.8765C122.549 59.0513 120.752 59.3367 119.675 59.5106C118.598 59.6845 116.589 60.0023 115.211 60.2168C113.832 60.4314 111.823 60.7487 110.746 60.9218C109.67 61.095 107.907 61.374 106.83 61.5416C103.991 61.9835 97.1133 63.0697 93.9075 63.5822C91.0458 64.0398 87.0807 64.6643 84.9005 65.0011C83.8236 65.1674 82.0967 65.4397 81.0628 65.606C78.7461 65.9787 70.6015 67.2645 68.0885 67.6541C67.0695 67.8122 66.2019 67.9754 66.1605 68.0169C66.0725 68.1048 66.8237 68.5709 72.8391 72.1613C75.2945 73.6269 80.123 76.5124 83.5691 78.5735C93.9253 84.7677 94.5159 85.12 94.6241 85.1672C94.6813 85.1921 95.0721 85.0055 95.4925 84.7527C97.0887 83.7925 100.287 81.8933 103.306 80.1122C105.029 79.0959 106.686 78.1076 106.987 77.9162C107.289 77.7248 108.839 76.7954 110.433 75.8512C114.83 73.2464 127.458 65.724 140.469 57.9587C142.386 56.8148 143.955 55.8502 143.955 55.8151C143.955 55.7029 143.303 55.7749 140.978 56.1437ZM40.2576 58.6669C40.2576 58.7199 40.8782 59.548 41.6368 60.5075C42.3954 61.4669 43.7523 63.1934 44.6522 64.3441C45.5521 65.4948 46.535 66.7331 46.8365 67.0958C47.1381 67.4586 47.561 67.9903 47.7764 68.2772C48.3547 69.0479 51.5618 73.1366 53.014 74.9547C53.7087 75.8244 54.463 76.776 54.6904 77.0694C55.1678 77.6858 59.4381 83.1175 62.4985 87.0014C63.6527 88.466 66.2871 91.8143 68.3527 94.4419C70.4185 97.0696 73.0272 100.383 74.1499 101.804C75.2725 103.226 76.8643 105.241 77.687 106.283C78.5099 107.324 79.3593 108.41 79.5747 108.695C79.7901 108.98 80.8069 110.277 81.8343 111.578C83.8518 114.133 87.3041 118.497 87.61 118.878C87.7135 119.008 88.5386 120.065 89.4432 121.228C91.4184 123.767 91.6549 124.047 91.821 124.047C91.8916 124.047 91.9494 116.262 91.9494 106.747V89.4463L89.9522 88.246C88.8537 87.5857 87.0035 86.48 85.8404 85.7887C84.6773 85.0975 83.479 84.3739 83.1775 84.1809C82.8759 83.988 81.6776 83.264 80.5146 82.5719C79.3515 81.8799 74.523 78.9941 69.7846 76.1591C65.0462 73.3242 60.1824 70.4209 58.9763 69.7072C57.7701 68.9936 56.5366 68.2495 56.2351 68.0539C55.395 67.5089 40.3975 58.5709 40.323 58.5709C40.287 58.5709 40.2576 58.6141 40.2576 58.6669ZM109.9 81.4903L96.2862 89.6644L96.3891 103.044C96.4457 110.403 96.4921 122.841 96.4921 130.683C96.4921 139.57 96.5475 144.887 96.6391 144.795C96.766 144.666 97.9313 141.672 99.8674 136.5C100.158 135.725 100.719 134.245 101.115 133.211C101.51 132.177 102.072 130.697 102.363 129.921C102.653 129.146 103.325 127.384 103.857 126.005C104.388 124.627 105.06 122.865 105.35 122.089C105.64 121.314 106.201 119.834 106.597 118.8C106.993 117.766 107.554 116.286 107.845 115.51C108.135 114.735 109.018 112.409 109.807 110.341C110.596 108.273 111.372 106.229 111.532 105.798C111.691 105.368 112.132 104.205 112.512 103.214C112.891 102.223 113.949 99.4388 114.862 97.0265C115.776 94.6142 116.851 91.7947 117.252 90.7608C117.653 89.727 118.146 88.423 118.348 87.863C118.551 87.303 119.041 85.9989 119.439 84.9651C119.836 83.9313 120.405 82.4157 120.703 81.5973C121.001 80.7788 121.311 79.9682 121.392 79.7959C121.695 79.1529 123.748 73.6446 123.748 73.4734C123.748 73.3755 123.695 73.3 123.63 73.3058C123.566 73.3116 117.387 76.9945 109.9 81.4903Z" fill="#F77C57"/>
<path d="M235.864 121.259C232.947 121.259 230.23 120.785 227.714 119.837C225.234 118.852 223.064 117.485 221.205 115.734C219.381 113.947 217.959 111.851 216.938 109.444C215.917 107.037 215.407 104.412 215.407 101.567C215.407 98.7231 215.917 96.0976 216.938 93.6909C217.959 91.2841 219.4 89.2056 221.259 87.4553C223.119 85.6685 225.289 84.301 227.768 83.3529C230.248 82.3683 232.965 81.8761 235.919 81.8761C239.055 81.8761 241.917 82.423 244.506 83.517C247.095 84.5745 249.283 86.1607 251.07 88.2757L246.475 92.5969C245.09 91.1018 243.54 89.9896 241.826 89.2603C240.112 88.4945 238.252 88.1116 236.247 88.1116C234.241 88.1116 232.4 88.4398 230.722 89.0962C229.081 89.7526 227.641 90.6825 226.401 91.8858C225.198 93.0892 224.25 94.5113 223.557 96.1523C222.9 97.7932 222.572 99.5983 222.572 101.567C222.572 103.537 222.9 105.342 223.557 106.982C224.25 108.623 225.198 110.046 226.401 111.249C227.641 112.452 229.081 113.382 230.722 114.039C232.4 114.695 234.241 115.023 236.247 115.023C238.252 115.023 240.112 114.658 241.826 113.929C243.54 113.163 245.09 112.015 246.475 110.483L251.07 114.859C249.283 116.938 247.095 118.524 244.506 119.618C241.917 120.712 239.036 121.259 235.864 121.259ZM284.861 120.712V82.423H291.972V120.712H284.861ZM257.949 120.712V82.423H265.06V120.712H257.949ZM264.459 104.302V98.2308H285.408V104.302H264.459ZM302.778 120.712V82.423H309.889V120.712H302.778ZM320.792 120.712V82.423H326.645L350.658 111.905H347.759V82.423H354.815V120.712H348.962L324.95 91.2294H327.849V120.712H320.792ZM383.562 121.259C380.572 121.259 377.819 120.766 375.303 119.782C372.787 118.797 370.599 117.43 368.739 115.68C366.88 113.893 365.439 111.814 364.418 109.444C363.397 107.037 362.887 104.412 362.887 101.567C362.887 98.7231 363.397 96.1158 364.418 93.7456C365.439 91.3388 366.88 89.2603 368.739 87.51C370.599 85.7232 372.787 84.3375 375.303 83.3529C377.819 82.3683 380.554 81.8761 383.508 81.8761C386.498 81.8761 389.233 82.3683 391.712 83.3529C394.229 84.3375 396.417 85.7232 398.276 87.51C400.136 89.2603 401.576 91.3388 402.597 93.7456C403.618 96.1158 404.129 98.7231 404.129 101.567C404.129 104.412 403.618 107.037 402.597 109.444C401.576 111.851 400.136 113.929 398.276 115.68C396.417 117.43 394.229 118.797 391.712 119.782C389.233 120.766 386.516 121.259 383.562 121.259ZM383.508 115.023C385.44 115.023 387.227 114.695 388.868 114.039C390.509 113.382 391.931 112.452 393.135 111.249C394.338 110.009 395.268 108.587 395.924 106.982C396.617 105.342 396.963 103.537 396.963 101.567C396.963 99.5983 396.617 97.8114 395.924 96.207C395.268 94.566 394.338 93.1439 393.135 91.9405C391.931 90.7007 390.509 89.7526 388.868 89.0962C387.227 88.4398 385.44 88.1116 383.508 88.1116C381.575 88.1116 379.788 88.4398 378.147 89.0962C376.543 89.7526 375.121 90.7007 373.881 91.9405C372.678 93.1439 371.729 94.566 371.037 96.207C370.38 97.8114 370.052 99.5983 370.052 101.567C370.052 103.5 370.38 105.287 371.037 106.928C371.729 108.569 372.678 110.009 373.881 111.249C375.084 112.452 376.506 113.382 378.147 114.039C379.788 114.695 381.575 115.023 383.508 115.023Z" fill="#252E53"/>
<path d="M412.676 121.095C411.437 121.095 410.379 120.675 409.504 119.837C408.629 118.961 408.191 117.867 408.191 116.555C408.191 115.169 408.629 114.075 409.504 113.273C410.379 112.434 411.437 112.015 412.676 112.015C413.916 112.015 414.974 112.434 415.849 113.273C416.724 114.075 417.162 115.169 417.162 116.555C417.162 117.867 416.724 118.961 415.849 119.837C414.974 120.675 413.916 121.095 412.676 121.095ZM425.046 120.712V82.423H432.157V120.712H425.046ZM461.001 121.259C458.011 121.259 455.258 120.766 452.741 119.782C450.225 118.797 448.037 117.43 446.178 115.68C444.318 113.893 442.878 111.814 441.857 109.444C440.836 107.037 440.325 104.412 440.325 101.567C440.325 98.7231 440.836 96.1158 441.857 93.7456C442.878 91.3388 444.318 89.2603 446.178 87.51C448.037 85.7232 450.225 84.3375 452.741 83.3529C455.258 82.3683 457.993 81.8761 460.946 81.8761C463.936 81.8761 466.671 82.3683 469.151 83.3529C471.667 84.3375 473.855 85.7232 475.715 87.51C477.574 89.2603 479.015 91.3388 480.036 93.7456C481.057 96.1158 481.567 98.7231 481.567 101.567C481.567 104.412 481.057 107.037 480.036 109.444C479.015 111.851 477.574 113.929 475.715 115.68C473.855 117.43 471.667 118.797 469.151 119.782C466.671 120.766 463.955 121.259 461.001 121.259ZM460.946 115.023C462.879 115.023 464.666 114.695 466.307 114.039C467.948 113.382 469.37 112.452 470.573 111.249C471.776 110.009 472.706 108.587 473.363 106.982C474.056 105.342 474.402 103.537 474.402 101.567C474.402 99.5983 474.056 97.8114 473.363 96.207C472.706 94.566 471.776 93.1439 470.573 91.9405C469.37 90.7007 467.948 89.7526 466.307 89.0962C464.666 88.4398 462.879 88.1116 460.946 88.1116C459.014 88.1116 457.227 88.4398 455.586 89.0962C453.981 89.7526 452.559 90.7007 451.319 91.9405C450.116 93.1439 449.168 94.566 448.475 96.207C447.819 97.8114 447.49 99.5983 447.49 101.567C447.49 103.5 447.819 105.287 448.475 106.928C449.168 108.569 450.116 110.009 451.319 111.249C452.523 112.452 453.945 113.382 455.586 114.039C457.227 114.695 459.014 115.023 460.946 115.023Z" fill="#F77C57"/>
</svg>
